<svg width="292" height="40" viewBox="0 0 292 40" fill="none" xmlns="http://www.w3.org/2000/svg">
<g clip-path="url(#clip0_1_335)">
<path fill-rule="evenodd" clip-rule="evenodd" d="M19.4092 0.5H24.1991V9.14294L28.5043 0.5H33.2942L24.1991 18.7612V29.8817L38.8183 0.5H43.6082L24.1991 39.5H19.4092L0 0.5H4.78992L19.4092 29.8817V18.7612L10.314 0.5H15.1039L19.4092 9.14294V0.5Z" fill="white"/>
<path d="M53.0954 37.9836H53.8439C55.0627 37.9836 55.9038 37.9266 56.3742 37.8198C56.8447 37.713 57.2367 37.5279 57.5432 37.2645C57.9495 36.9228 58.256 36.4814 58.4698 35.9403C58.6837 35.3992 58.7906 34.7727 58.7906 34.075C58.7906 33.3773 58.6837 32.7508 58.477 32.2169C58.2703 31.6829 57.9566 31.2415 57.5432 30.8927C57.2296 30.6292 56.8376 30.437 56.3529 30.3302C55.8753 30.2163 55.0342 30.1594 53.8367 30.1594H53.0883V37.9764L53.0954 37.9836ZM51.8979 39.1084V29.0559H53.8011C55.2053 29.0559 56.1961 29.127 56.7734 29.2694C57.3508 29.4118 57.8568 29.6539 58.2845 29.9956C58.8547 30.4441 59.2824 31.0066 59.5818 31.6971C59.874 32.3877 60.0237 33.1851 60.0237 34.0893C60.0237 34.9934 59.8812 35.7766 59.5889 36.4671C59.2967 37.1577 58.869 37.7201 58.2916 38.1687C57.8568 38.5033 57.365 38.7453 56.8162 38.8948C56.2602 39.0372 55.4049 39.1084 54.2359 39.1084H53.8082H51.9051H51.8979ZM64.386 39.1084V29.0559H69.6107V30.1522H65.5621V33.0356H69.6107V34.1462H65.5621V37.9978H69.6107V39.1084H64.386ZM77.6509 33.5339C78.2924 33.8116 78.7842 34.1818 79.1121 34.6446C79.44 35.1073 79.6039 35.6555 79.6039 36.282C79.6039 37.2075 79.3117 37.948 78.7343 38.5175C78.157 39.0799 77.3872 39.3647 76.432 39.3647C75.648 39.3647 74.9993 39.1654 74.4648 38.7596C73.9373 38.3538 73.5809 37.7771 73.3956 37.0367L74.4648 36.5027C74.6073 37.115 74.8497 37.5706 75.1775 37.891C75.5054 38.2043 75.926 38.3609 76.4249 38.3609C77.0165 38.3609 77.4941 38.19 77.8647 37.8412C78.2283 37.4923 78.4136 37.0438 78.4136 36.4885C78.4136 36.04 78.2853 35.6484 78.0287 35.3138C77.7721 34.9792 77.3943 34.7015 76.874 34.4737L75.6694 33.954C75.0136 33.6763 74.5218 33.3132 74.201 32.879C73.8803 32.4376 73.7163 31.9107 73.7163 31.2985C73.7163 30.5865 73.9801 29.9956 74.5004 29.5257C75.0279 29.0559 75.6908 28.828 76.5033 28.828C77.0949 28.828 77.6153 28.9562 78.0501 29.2125C78.4849 29.4688 78.827 29.8461 79.0694 30.3516L78.0928 30.9852C77.8719 30.5936 77.6224 30.3089 77.3515 30.1166C77.0736 29.9244 76.7671 29.8319 76.4178 29.8319C75.9759 29.8319 75.6123 29.9671 75.3272 30.2448C75.0421 30.5224 74.9067 30.8713 74.9067 31.2913C74.9067 31.6473 75.0136 31.9534 75.2346 32.2169C75.4484 32.4803 75.7834 32.7081 76.2396 32.9074L77.658 33.5411L77.6509 33.5339ZM83.6169 39.1084V29.0559H84.793V39.1084H83.6169ZM95.0714 33.9184H99.1628V34.253C99.1628 35.8335 98.7209 37.0865 97.837 37.9978C96.9532 38.9162 95.7414 39.3718 94.2161 39.3718C93.7527 39.3718 93.3037 39.322 92.8831 39.2223C92.4626 39.1227 92.0706 38.9732 91.7142 38.7809C90.9016 38.3253 90.2743 37.7059 89.8324 36.9014C89.3905 36.104 89.1695 35.1928 89.1695 34.1818C89.1695 33.3488 89.2978 32.5871 89.5616 31.9107C89.8253 31.2344 90.2245 30.6435 90.759 30.1309C91.2081 29.6966 91.7213 29.3762 92.3129 29.1555C92.9045 28.9348 93.5603 28.828 94.2802 28.828C95.2353 28.828 96.055 29.006 96.7536 29.3549C97.4521 29.7037 98.0366 30.2306 98.4928 30.9354L97.502 31.7399C97.1456 31.1276 96.7037 30.672 96.1691 30.3658C95.6345 30.0597 95.0215 29.9102 94.3159 29.9102C93.1683 29.9102 92.2274 30.3017 91.5146 31.092C90.7947 31.8822 90.4383 32.9074 90.4383 34.1818C90.4383 35.385 90.8018 36.3675 91.5289 37.1364C92.2559 37.9052 93.1825 38.2897 94.3159 38.2897C95.3066 38.2897 96.1335 37.9836 96.7963 37.3713C97.4592 36.759 97.8228 35.9617 97.894 34.9863H95.0643V33.9184H95.0714ZM103.34 39.1084V28.6643L110.589 36.695V29.0559H111.715V39.5L104.466 31.5548V39.1084H103.34ZM116.512 39.1084V29.0559H121.737V30.1522H117.688V33.0356H121.737V34.1462H117.688V37.9978H121.737V39.1084H116.512ZM126.17 39.1084V29.0559H128.501C129.164 29.0559 129.649 29.0914 129.962 29.1698C130.269 29.2481 130.547 29.3762 130.782 29.5613C131.074 29.7963 131.302 30.1095 131.466 30.5011C131.63 30.8927 131.709 31.3269 131.709 31.8039C131.709 32.6298 131.481 33.2563 131.031 33.6835C130.575 34.1106 129.912 34.3242 129.036 34.3242H128.822L132.607 39.1155H131.11L127.489 34.3242H127.325V39.1155H126.177L126.17 39.1084ZM127.318 30.0668V33.4272H128.216C129.135 33.4272 129.756 33.3061 130.069 33.0641C130.383 32.822 130.533 32.4091 130.533 31.8039C130.533 31.1561 130.376 30.7075 130.055 30.4513C129.734 30.195 129.121 30.0668 128.216 30.0668H127.318ZM145.558 33.9184H149.649V34.253C149.649 35.8335 149.207 37.0865 148.324 37.9978C147.44 38.9162 146.228 39.3718 144.703 39.3718C144.239 39.3718 143.79 39.322 143.37 39.2223C142.949 39.1227 142.557 38.9732 142.201 38.7809C141.388 38.3253 140.761 37.7059 140.319 36.9014C139.877 36.104 139.656 35.1928 139.656 34.1818C139.656 33.3488 139.784 32.5871 140.048 31.9107C140.312 31.2344 140.711 30.6435 141.246 30.1309C141.695 29.6966 142.208 29.3762 142.8 29.1555C143.391 28.9348 144.047 28.828 144.767 28.828C145.722 28.828 146.542 29.006 147.24 29.3549C147.939 29.7037 148.523 30.2306 148.979 30.9354L147.989 31.7399C147.632 31.1276 147.19 30.672 146.656 30.3658C146.121 30.0597 145.508 29.9102 144.802 29.9102C143.655 29.9102 142.714 30.3017 142.001 31.092C141.281 31.8822 140.925 32.9074 140.925 34.1818C140.925 35.385 141.288 36.3675 142.015 37.1364C142.743 37.9052 143.669 38.2897 144.802 38.2897C145.793 38.2897 146.62 37.9836 147.283 37.3713C147.946 36.759 148.309 35.9617 148.381 34.9863H145.551V33.9184H145.558ZM153.826 39.1084V29.0559H156.157C156.82 29.0559 157.305 29.0914 157.618 29.1698C157.925 29.2481 158.203 29.3762 158.438 29.5613C158.73 29.7963 158.958 30.1095 159.122 30.5011C159.286 30.8927 159.365 31.3269 159.365 31.8039C159.365 32.6298 159.137 33.2563 158.688 33.6835C158.231 34.1106 157.568 34.3242 156.692 34.3242H156.485L160.27 39.1155H158.773L155.152 34.3242H154.988V39.1155H153.841L153.826 39.1084ZM154.981 30.0668V33.4272H155.879C156.799 33.4272 157.419 33.3061 157.732 33.0641C158.046 32.822 158.203 32.4091 158.203 31.8039C158.203 31.1561 158.046 30.7075 157.725 30.4513C157.405 30.195 156.792 30.0668 155.886 30.0668H154.988H154.981ZM166.813 31.3056L165.238 35.0005H168.389L166.813 31.3056ZM166.813 28.6643L171.318 39.1084H170.042L168.752 36.0329H164.882L163.592 39.1084H162.316L166.806 28.6643H166.813ZM165.858 28.0591L167.241 25.667H168.602L166.671 28.0591H165.858ZM174.775 39.1084V29.0559H180V30.1522H175.951V33.0356H180V34.1462H175.951V39.1084H174.775ZM184.248 39.1084V29.0559H185.424V39.1084H184.248ZM198.297 31.4622C197.827 30.9425 197.321 30.5509 196.779 30.3017C196.237 30.0526 195.646 29.9244 194.997 29.9244C194.469 29.9244 193.963 30.0312 193.464 30.2448C192.965 30.4584 192.531 30.7574 192.167 31.1418C191.789 31.5405 191.504 31.9819 191.312 32.4803C191.119 32.9715 191.027 33.5126 191.027 34.1106C191.027 34.5734 191.084 35.0077 191.198 35.3992C191.312 35.7908 191.483 36.1539 191.704 36.4814C192.103 37.0509 192.588 37.4923 193.165 37.8056C193.742 38.1117 194.37 38.2683 195.047 38.2683C195.681 38.2683 196.266 38.1331 196.807 37.8697C197.349 37.6062 197.848 37.2075 198.29 36.6807V38.2683C197.798 38.6314 197.271 38.902 196.7 39.0871C196.137 39.2722 195.546 39.3647 194.94 39.3647C194.42 39.3647 193.906 39.2864 193.407 39.1298C192.908 38.9732 192.445 38.7382 192.01 38.4392C191.29 37.9337 190.734 37.3072 190.357 36.5668C189.979 35.8264 189.786 35.0077 189.786 34.1249C189.786 33.3488 189.915 32.644 190.171 32.0104C190.428 31.3768 190.813 30.8001 191.34 30.2804C191.846 29.7892 192.402 29.4189 193.022 29.1698C193.635 28.9206 194.305 28.7996 195.033 28.7996C195.61 28.7996 196.159 28.885 196.7 29.063C197.242 29.241 197.77 29.5115 198.29 29.8817V31.4408L198.297 31.4622ZM207.578 38.2541C208.119 38.2541 208.632 38.1544 209.124 37.9408C209.616 37.7344 210.058 37.4283 210.45 37.0296C210.835 36.638 211.134 36.1895 211.334 35.6911C211.541 35.1928 211.64 34.6659 211.64 34.1035C211.64 33.5411 211.541 33.0071 211.334 32.4945C211.127 31.989 210.835 31.5405 210.45 31.149C210.065 30.7574 209.623 30.4584 209.131 30.2519C208.647 30.0454 208.126 29.9458 207.578 29.9458C207.029 29.9458 206.508 30.0454 206.017 30.2519C205.525 30.4584 205.09 30.7574 204.712 31.149C204.327 31.5476 204.028 31.9962 203.828 32.5016C203.622 33.0071 203.522 33.5411 203.522 34.1035C203.522 34.6659 203.622 35.1856 203.821 35.684C204.021 36.1752 204.32 36.6238 204.712 37.0296C205.111 37.4354 205.553 37.7344 206.031 37.9408C206.515 38.1473 207.036 38.247 207.578 38.247V38.2541ZM212.874 34.1035C212.874 34.8226 212.745 35.4989 212.482 36.1325C212.218 36.7733 211.84 37.3357 211.341 37.8269C210.842 38.3182 210.265 38.7026 209.609 38.9732C208.953 39.2437 208.283 39.3718 207.578 39.3718C206.872 39.3718 206.202 39.2366 205.553 38.9732C204.905 38.7026 204.334 38.3253 203.828 37.8269C203.322 37.3286 202.937 36.759 202.674 36.1254C202.41 35.4918 202.282 34.8154 202.282 34.1035C202.282 33.3916 202.41 32.7081 202.674 32.0674C202.937 31.4266 203.322 30.8571 203.828 30.3587C204.327 29.8675 204.897 29.4901 205.546 29.2267C206.195 28.9633 206.872 28.828 207.57 28.828C208.269 28.828 208.953 28.9633 209.609 29.2267C210.258 29.4901 210.835 29.8675 211.334 30.3587C211.833 30.8499 212.218 31.4195 212.474 32.0602C212.738 32.701 212.866 33.3773 212.866 34.1035H212.874Z" fill="white"/>
<path d="M57.3721 9.64841H58.5482C60.0023 9.64841 61.0002 9.48467 61.5491 9.17141C62.0908 8.85104 62.3616 8.29573 62.3616 7.5126C62.3616 6.72946 62.1122 6.13143 61.599 5.79682C61.0929 5.46933 60.1092 5.30559 58.6409 5.30559H57.3721V9.65553V9.64841ZM51.8979 22.5986V1.0126H57.8283C60.2661 1.0126 61.9696 1.09091 62.939 1.24754C63.9084 1.40416 64.7352 1.6747 65.4409 2.05915C66.2392 2.50055 66.8451 3.09858 67.2656 3.83187C67.6862 4.57941 67.8929 5.43374 67.8929 6.40909C67.8929 7.63363 67.5792 8.6161 66.9591 9.33516C66.3319 10.0542 65.334 10.6024 63.9654 10.9797C65.4979 11.0936 66.7025 11.6347 67.565 12.5887C68.4346 13.5498 68.8623 14.8313 68.8623 16.4332C68.8623 17.5794 68.6199 18.5904 68.1352 19.466C67.6505 20.3417 66.952 21.0181 66.0468 21.5022C65.3126 21.8938 64.4002 22.1785 63.3239 22.3423C62.2405 22.506 60.4728 22.5915 58.0137 22.5915H51.9051L51.8979 22.5986ZM57.3721 18.1917H59.4392C60.8363 18.1917 61.8199 18.0137 62.4044 17.6648C62.9818 17.316 63.274 16.7322 63.274 15.9135C63.274 15.0093 63.0103 14.3757 62.4757 14.0197C61.9482 13.6637 60.9646 13.4786 59.5319 13.4786H57.3721V18.1917ZM72.3977 22.5986V1.0126H78.5633C80.9725 1.0126 82.6547 1.12651 83.6027 1.34721C84.5507 1.56791 85.3704 1.93812 86.0618 2.45783C86.8387 3.04874 87.4375 3.8034 87.858 4.71468C88.2785 5.63308 88.4853 6.63691 88.4853 7.74042C88.4853 9.41347 88.0718 10.7662 87.2521 11.8127C86.4253 12.8593 85.2278 13.557 83.6526 13.8987L89.5473 22.6057H82.897L77.9431 14.155V22.6057H72.4119L72.3977 22.5986ZM77.9289 11.2147H79.0195C80.2882 11.2147 81.2148 11.0011 81.7993 10.5668C82.3838 10.1325 82.676 9.45619 82.676 8.53067C82.676 7.44852 82.4052 6.67963 81.8635 6.22399C81.3146 5.76835 80.4023 5.54053 79.1121 5.54053H77.936V11.2147H77.9289ZM91.6572 1.0126H97.5234V11.5137C97.5234 13.0515 97.5661 14.1621 97.6374 14.8313C97.7158 15.5077 97.8513 16.0701 98.0437 16.5186C98.2647 17.0668 98.6638 17.4869 99.2198 17.7788C99.7758 18.0635 100.467 18.213 101.273 18.213C102.078 18.213 102.755 18.0635 103.318 17.7788C103.874 17.4869 104.273 17.0668 104.502 16.5186C104.694 16.063 104.822 15.5005 104.908 14.8313C104.986 14.1621 105.022 13.0515 105.022 11.5137V1.0126H110.888V12.425C110.888 14.7957 110.746 16.54 110.46 17.6648C110.175 18.7897 109.698 19.7508 109.013 20.5482C108.279 21.4168 107.267 22.0789 105.977 22.5131C104.687 22.9474 103.126 23.1681 101.287 23.1681C99.4479 23.1681 97.8726 22.9545 96.5896 22.5131C95.3066 22.0789 94.2873 21.4168 93.5389 20.5482C92.8689 19.7508 92.3913 18.7897 92.0991 17.6648C91.814 16.54 91.6643 14.7886 91.6643 12.425V1.0126H91.6572ZM115.35 22.5986V1.0126H121.031L129.2 12.1117C129.356 12.3395 129.613 12.7952 129.969 13.4786C130.333 14.155 130.725 14.9737 131.16 15.9206C131.046 15.0235 130.96 14.2333 130.903 13.5285C130.846 12.8308 130.825 12.2114 130.825 11.6703V1.0126H136.477V22.5986H130.825L122.656 11.4567C122.485 11.2289 122.221 10.7733 121.865 10.0898C121.502 9.40635 121.117 8.60186 120.689 7.67634C120.803 8.5805 120.888 9.38499 120.946 10.0827C121.003 10.7804 121.024 11.3998 121.024 11.9409V22.6057H115.343L115.35 22.5986ZM163.285 11.8483C163.285 13.4003 163 14.8598 162.43 16.2125C161.859 17.5723 161.033 18.7826 159.935 19.8576C158.83 20.9184 157.576 21.7371 156.157 22.3138C154.739 22.8905 153.27 23.1752 151.752 23.1752C150.234 23.1752 148.723 22.8905 147.311 22.3138C145.9 21.7371 144.66 20.9184 143.591 19.8576C142.479 18.7897 141.638 17.5652 141.053 16.1982C140.476 14.8313 140.191 13.3861 140.191 11.8483C140.191 10.3105 140.476 8.85104 141.053 7.49124C141.631 6.13143 142.472 4.91402 143.591 3.84611C144.667 2.78532 145.9 1.96659 147.311 1.38992C148.723 0.813253 150.205 0.528478 151.752 0.528478C153.299 0.528478 154.767 0.813253 156.186 1.38992C157.604 1.96659 158.859 2.78532 159.942 3.84611C161.025 4.9069 161.852 6.1172 162.43 7.49124C163.007 8.85816 163.292 10.3105 163.292 11.8554L163.285 11.8483ZM151.738 18.1917C153.37 18.1917 154.717 17.5936 155.786 16.3976C156.856 15.1944 157.39 13.678 157.39 11.8554C157.39 10.0329 156.849 8.53779 155.765 7.32749C154.682 6.1172 153.335 5.51917 151.738 5.51917C150.141 5.51917 148.758 6.12432 147.689 7.32749C146.62 8.53067 146.085 10.0471 146.085 11.8625C146.085 13.678 146.606 15.23 147.661 16.4189C148.716 17.615 150.077 18.2059 151.738 18.2059V18.1917ZM177.398 15.6216C178.275 16.6112 179.137 17.3516 179.986 17.8428C180.834 18.3341 181.682 18.5761 182.53 18.5761C183.314 18.5761 183.963 18.3625 184.469 17.9425C184.975 17.5225 185.232 16.9885 185.232 16.3406C185.232 15.6287 185.018 15.0734 184.576 14.6889C184.141 14.3045 183.15 13.8987 181.611 13.4858C179.494 12.9162 177.997 12.1758 177.12 11.2645C176.243 10.3461 175.809 9.0931 175.809 7.50548C175.809 5.44085 176.5 3.75356 177.883 2.45071C179.259 1.14786 181.055 0.5 183.257 0.5C184.455 0.5 185.581 0.663746 186.65 0.976999C187.719 1.29737 188.731 1.78149 189.687 2.42935L187.84 6.65827C187.17 6.08872 186.486 5.66156 185.781 5.36966C185.082 5.08489 184.383 4.93538 183.692 4.93538C183.001 4.93538 182.409 5.10624 181.967 5.44085C181.525 5.77547 181.304 6.21687 181.304 6.7437C181.304 7.27054 181.497 7.71194 181.882 8.03943C182.266 8.3598 183.022 8.67306 184.127 8.96495L184.391 9.04326C186.793 9.69113 188.375 10.4031 189.131 11.1791C189.644 11.7059 190.036 12.3467 190.3 13.0871C190.563 13.8346 190.699 14.6533 190.699 15.5575C190.699 17.8499 189.95 19.6867 188.439 21.075C186.935 22.4704 184.925 23.161 182.416 23.161C180.912 23.161 179.537 22.9047 178.303 22.3992C177.07 21.8866 175.88 21.0893 174.739 19.9929L177.391 15.6145L177.398 15.6216ZM216.181 11.8483C216.181 13.4003 215.896 14.8598 215.326 16.2125C214.755 17.5723 213.928 18.7826 212.831 19.8576C211.726 20.9184 210.471 21.7371 209.053 22.3138C207.635 22.8905 206.166 23.1752 204.648 23.1752C203.13 23.1752 201.619 22.8905 200.207 22.3138C198.796 21.7371 197.556 20.9184 196.487 19.8576C195.375 18.7897 194.534 17.5652 193.956 16.1982C193.379 14.8313 193.094 13.3861 193.094 11.8483C193.094 10.3105 193.379 8.85104 193.956 7.49124C194.534 6.13143 195.375 4.91402 196.487 3.84611C197.563 2.78532 198.796 1.96659 200.207 1.38992C201.619 0.813253 203.101 0.528478 204.648 0.528478C206.195 0.528478 207.663 0.813253 209.081 1.38992C210.5 1.96659 211.754 2.78532 212.838 3.84611C213.921 4.9069 214.748 6.1172 215.326 7.49124C215.903 8.85816 216.188 10.3105 216.188 11.8554L216.181 11.8483ZM204.634 18.1917C206.266 18.1917 207.613 17.5936 208.682 16.3976C209.752 15.1944 210.286 13.678 210.286 11.8554C210.286 10.0329 209.744 8.53779 208.661 7.32749C207.578 6.1172 206.23 5.51917 204.634 5.51917C203.037 5.51917 201.654 6.12432 200.585 7.32749C199.516 8.53067 198.981 10.0471 198.981 11.8625C198.981 13.678 199.502 15.23 200.557 16.4189C201.612 17.615 202.973 18.2059 204.634 18.2059V18.1917ZM225.055 14.5394H230.914L228.712 7.41292C228.647 7.19934 228.548 6.85049 228.434 6.36637C228.312 5.88226 228.163 5.26287 227.977 4.50821C227.849 5.03505 227.728 5.54765 227.6 6.02464C227.479 6.50164 227.35 6.9644 227.229 7.40581L225.055 14.5323V14.5394ZM216.801 22.5986L224.264 1.0126H231.641L239.104 22.5986H233.245L232.154 18.7327H223.786L222.66 22.5986H216.794H216.801ZM241.164 22.5986V1.0126H247.33C249.739 1.0126 251.421 1.12651 252.369 1.34721C253.317 1.56791 254.137 1.93812 254.828 2.45783C255.605 3.04874 256.204 3.8034 256.624 4.71468C257.045 5.63308 257.252 6.63691 257.252 7.74042C257.252 9.41347 256.838 10.7662 256.018 11.8127C255.192 12.8593 253.994 13.557 252.419 13.8987L258.314 22.6057H251.663L246.709 14.155V22.6057H241.178L241.164 22.5986ZM246.695 11.2147H247.786C249.055 11.2147 249.981 11.0011 250.566 10.5668C251.15 10.1325 251.442 9.45619 251.442 8.53067C251.442 7.44852 251.172 6.67963 250.623 6.22399C250.074 5.76835 249.161 5.54053 247.871 5.54053H246.695V11.2147ZM260.545 22.5986V1.0126H273.781V5.75411H266.283V9.49891H273.353V14.1194H266.283V17.7716H273.781V22.5986H260.545ZM278.642 15.6216C279.519 16.6112 280.381 17.3516 281.23 17.8428C282.078 18.3341 282.926 18.5761 283.774 18.5761C284.558 18.5761 285.207 18.3625 285.713 17.9425C286.219 17.5225 286.476 16.9885 286.476 16.3406C286.476 15.6287 286.262 15.0734 285.82 14.6889C285.385 14.3045 284.394 13.8987 282.855 13.4858C280.738 12.9162 279.241 12.1758 278.364 11.2645C277.488 10.3461 277.053 9.0931 277.053 7.50548C277.053 5.44085 277.744 3.75356 279.127 2.45071C280.51 1.14786 282.306 0.5 284.509 0.5C285.706 0.5 286.832 0.663746 287.901 0.976999C288.971 1.29737 289.983 1.78149 290.938 2.42935L289.092 6.65827C288.422 6.08872 287.737 5.66156 287.032 5.36966C286.333 5.08489 285.635 4.93538 284.943 4.93538C284.252 4.93538 283.66 5.10624 283.218 5.44085C282.776 5.77547 282.555 6.21687 282.555 6.7437C282.555 7.27054 282.748 7.71194 283.133 8.03943C283.518 8.3598 284.273 8.67306 285.378 8.96495L285.642 9.04326C288.044 9.69113 289.626 10.4031 290.382 11.1791C290.895 11.7059 291.287 12.3467 291.551 13.0871C291.815 13.8346 291.95 14.6533 291.95 15.5575C291.95 17.8499 291.202 19.6867 289.69 21.075C288.187 22.4704 286.176 23.161 283.667 23.161C282.163 23.161 280.788 22.9047 279.555 22.3992C278.322 21.8866 277.131 21.0893 275.991 19.9929L278.642 15.6145V15.6216Z" fill="white"/>
</g>
<defs>
<clipPath id="clip0_1_335">
<rect width="291.943" height="39" fill="white" transform="translate(0 0.5)"/>
</clipPath>
</defs>
</svg>
